<?xml version="1.0" encoding="utf-8"?>
<!-- Generator: Adobe Illustrator 25.4.1, SVG Export Plug-In . SVG Version: 6.00 Build 0)  -->
<svg version="1.1" id="Layer_1" xmlns="http://www.w3.org/2000/svg" xmlns:xlink="http://www.w3.org/1999/xlink" x="0px" y="0px"
	 viewBox="0 0 493.25 96.22" style="enable-background:new 0 0 493.25 96.22;" xml:space="preserve">
<style type="text/css">
	.st0{fill:none;}
	.st1{fill:#FFFFFF;}
</style>
<g>
	<path class="st0" d="M24.51,39.23c1.33-3.09,3.14-5.78,5.45-8.08c2.31-2.3,5-4.11,8.08-5.43c3.08-1.33,6.37-1.99,9.88-1.99
		c3.51,0,6.81,0.66,9.9,1.99c3.09,1.33,5.78,3.14,8.08,5.43c2.3,2.3,4.11,4.99,5.43,8.08c1.33,3.09,1.99,6.39,1.99,9.9
		c0,3.51-0.66,6.8-1.99,9.88c-1.33,3.08-3.14,5.77-5.43,8.06c-2.3,2.3-4.99,4.11-8.08,5.43c-3.09,1.33-6.39,1.99-9.9,1.99
		c-3.51,0-6.8-0.66-9.88-1.99c-3.08-1.33-5.77-3.14-8.08-5.43c-2.31-2.29-4.12-4.98-5.45-8.06c-1.33-3.08-1.99-6.37-1.99-9.88
		C22.52,45.62,23.18,42.32,24.51,39.23z M36.24,54.26c0.63,1.6,1.51,3,2.63,4.19c1.12,1.19,2.45,2.13,4,2.82
		c1.54,0.69,3.23,1.04,5.05,1.04c1.85,0,3.54-0.35,5.07-1.04c1.53-0.69,2.87-1.63,4-2.82c1.13-1.19,2.01-2.58,2.63-4.19
		c0.62-1.6,0.93-3.32,0.93-5.14c0-1.85-0.31-3.56-0.93-5.16c-0.62-1.59-1.5-2.99-2.63-4.19c-1.13-1.2-2.46-2.14-4-2.82
		c-1.53-0.68-3.22-1.02-5.07-1.02c-1.82,0-3.51,0.34-5.05,1.02c-1.55,0.68-2.88,1.62-4,2.82c-1.12,1.2-2,2.6-2.63,4.19
		c-0.63,1.59-0.95,3.31-0.95,5.16C35.29,50.95,35.61,52.66,36.24,54.26z"/>
	<path class="st1" d="M112.67,59.45c0.23-0.1,0.45-0.16,0.66-0.16c0.39,0,0.71,0.2,0.97,0.59l5.43,7.99
		c0.37,0.46,0.51,0.85,0.43,1.16c-0.08,0.31-0.38,0.64-0.88,0.99c-1.75,1.25-3.82,2.31-6.19,3.18c-2.38,0.88-5.08,1.31-8.1,1.31
		c-3.53,0-6.84-0.67-9.93-2.01s-5.79-3.16-8.1-5.47c-2.31-2.31-4.13-5.01-5.47-8.1c-1.34-3.09-2.01-6.4-2.01-9.93
		c0-3.53,0.67-6.83,2.01-9.91c1.34-3.08,3.16-5.76,5.47-8.05c2.31-2.28,5.01-4.08,8.1-5.4s6.4-1.97,9.93-1.97
		c1.5,0,2.92,0.12,4.27,0.36s2.62,0.57,3.82,0.99c1.2,0.42,2.33,0.91,3.39,1.47c1.06,0.57,2.04,1.17,2.94,1.82
		c0.35,0.25,0.55,0.55,0.61,0.88c0.06,0.33,0.01,0.63-0.16,0.88l-5.78,8.27c-0.23,0.32-0.53,0.48-0.9,0.48
		c-0.39,0-0.77-0.15-1.14-0.45c-1.11-0.88-2.22-1.51-3.32-1.9c-1.11-0.39-2.35-0.59-3.74-0.59c-1.85,0-3.55,0.34-5.12,1.02
		c-1.57,0.68-2.92,1.61-4.07,2.79c-1.14,1.18-2.04,2.56-2.68,4.15c-0.65,1.59-0.97,3.31-0.97,5.16s0.32,3.58,0.97,5.19
		c0.65,1.62,1.54,3.02,2.68,4.2s2.5,2.13,4.07,2.82c1.57,0.69,3.28,1.04,5.12,1.04c1.41,0,2.7-0.25,3.88-0.74s2.2-1.04,3.08-1.64
		C112.19,59.7,112.43,59.56,112.67,59.45z"/>
	<path class="st1" d="M128.2,25.94c0-0.99,0.48-1.49,1.45-1.49l33.05,0c0.97,0,1.45,0.5,1.45,1.49v8.51c0,0.97-0.48,1.45-1.45,1.45
		l-21.66,0l0,8.2l16.44,0c0.51,0,0.91,0.12,1.19,0.36c0.29,0.24,0.43,0.63,0.43,1.16v6.85c0,0.97-0.54,1.45-1.63,1.45l-16.44,0v8.48
		l22.29,0c0.99,0,1.49,0.48,1.49,1.45v8.48c0,0.97-0.5,1.45-1.49,1.45l-33.67,0c-0.97,0-1.45-0.48-1.45-1.45L128.2,25.94z"/>
	<path class="st1" d="M187.2,25.94c0.39-0.99,1.07-1.49,2.04-1.49l8.13,0c0.95,0,1.61,0.5,2.01,1.49l18.13,46.4
		c0.39,0.97,0.08,1.45-0.93,1.45h-9.9c-0.99,0-1.65-0.48-1.97-1.45l-2.32-6.5h-18.13l-2.25,6.51c-0.32,0.97-0.99,1.45-2.01,1.45
		h-9.9c-0.99,0-1.3-0.48-0.93-1.45L187.2,25.94z M193.22,40.06L188,55.14l10.59,0L193.22,40.06z"/>
	<path class="st1" d="M236.34,43.58v28.76c0,0.97-0.54,1.45-1.63,1.45l-9.27,0c-0.97,0-1.45-0.48-1.45-1.45l0-46.4
		c0-0.39,0.12-0.74,0.36-1.04c0.24-0.3,0.61-0.45,1.09-0.45l10.76,0c0.48,0,0.92,0.13,1.31,0.4c0.39,0.27,0.74,0.63,1.04,1.09
		l16.65,26.92l0-26.92c0-0.39,0.12-0.74,0.36-1.04c0.24-0.3,0.62-0.45,1.12-0.45h9.24c0.35,0,0.7,0.14,1.07,0.42
		c0.37,0.28,0.55,0.63,0.55,1.07v46.4c0,0.97-0.54,1.45-1.63,1.45h-9.72c-0.99,0-1.79-0.48-2.39-1.45L236.34,43.58z"/>
	<path d="M284.16,25.76c0.18-0.88,0.71-1.31,1.59-1.31l35.54,0c0.85,0,1.19,0.44,1,1.31l-1.35,6.26c-0.19,0.9-0.7,1.35-1.56,1.35
		l-13.08,0l-8.3,39.1c-0.21,0.88-0.74,1.32-1.59,1.32h-7.13c-0.9,0-1.25-0.44-1.04-1.32l8.3-39.1h-12.7c-0.88,0-1.22-0.45-1.04-1.35
		L284.16,25.76z"/>
	<path d="M321.67,42.37c1.06-2.17,2.34-4.19,3.84-6.07c1.5-1.88,3.19-3.59,5.07-5.14c1.88-1.54,3.88-2.87,5.99-3.96
		c2.11-1.1,4.31-1.94,6.61-2.54c2.3-0.6,4.61-0.9,6.94-0.9c3.51,0,6.66,0.66,9.45,1.99c2.79,1.33,5.09,3.14,6.89,5.43
		s3.03,4.98,3.69,8.06c0.66,3.08,0.62,6.37-0.12,9.88c-0.48,2.33-1.26,4.57-2.32,6.73c-1.06,2.16-2.34,4.18-3.84,6.06
		c-1.5,1.88-3.18,3.59-5.03,5.14c-1.86,1.55-3.84,2.87-5.95,3.96c-2.11,1.1-4.31,1.94-6.59,2.54c-2.28,0.6-4.6,0.9-6.96,0.9
		c-3.51,0-6.66-0.66-9.46-1.99c-2.8-1.33-5.11-3.13-6.92-5.42c-1.81-2.28-3.05-4.97-3.72-8.05c-0.67-3.08-0.64-6.37,0.1-9.88
		C319.83,46.79,320.61,44.54,321.67,42.37z M328.68,55.4c0.24,1.95,0.86,3.65,1.85,5.09c0.99,1.44,2.35,2.58,4.08,3.41
		c1.73,0.83,3.85,1.25,6.37,1.25c2.03,0,4.09-0.42,6.18-1.25c2.09-0.83,4.03-1.97,5.81-3.41c1.79-1.44,3.34-3.14,4.65-5.09
		c1.32-1.95,2.21-4.04,2.7-6.28c0.48-2.24,0.62-4.33,0.4-6.28c-0.22-1.95-0.81-3.65-1.77-5.1c-0.96-1.45-2.3-2.6-4.03-3.43
		c-1.73-0.83-3.88-1.25-6.44-1.25c-2.08,0-4.17,0.42-6.26,1.25c-2.1,0.83-4.05,1.97-5.85,3.43c-1.8,1.45-3.35,3.16-4.65,5.1
		c-1.3,1.95-2.2,4.04-2.68,6.28C328.56,51.36,328.44,53.45,328.68,55.4z"/>
	<path d="M387,54.2c-0.42,1.89-0.5,3.56-0.24,5s0.76,2.66,1.51,3.65c0.75,0.99,1.72,1.74,2.91,2.25c1.19,0.51,2.52,0.76,4,0.76
		c1.52,0,3.03-0.28,4.52-0.83s2.86-1.34,4.12-2.35c1.26-1.01,2.35-2.24,3.29-3.67s1.58-3.03,1.95-4.81l6.02-28.38
		c0.09-0.39,0.29-0.72,0.59-0.99s0.67-0.4,1.11-0.4h6.92c0.46,0,0.78,0.14,0.97,0.41s0.23,0.6,0.14,0.97l-6.02,28.34
		c-0.76,3.55-1.95,6.61-3.56,9.17c-1.62,2.56-3.53,4.67-5.75,6.33c-2.21,1.66-4.64,2.89-7.28,3.68s-5.36,1.19-8.15,1.19
		c-2.56,0-5.02-0.4-7.37-1.21c-2.35-0.81-4.35-2.05-5.99-3.74c-1.64-1.68-2.8-3.81-3.5-6.38c-0.69-2.57-0.66-5.62,0.1-9.15
		l5.99-28.27c0.09-0.37,0.28-0.69,0.55-0.95c0.28-0.27,0.6-0.4,0.97-0.4l7.27,0c0.51,0,0.82,0.13,0.93,0.38
		c0.12,0.25,0.13,0.58,0.03,0.97L387,54.2z"/>
	<path d="M434.45,25.79c0.09-0.35,0.26-0.65,0.5-0.92s0.59-0.4,1.06-0.4h20.42c2.28,0,4.33,0.45,6.12,1.35
		c1.8,0.9,3.28,2.1,4.43,3.6c1.15,1.5,1.94,3.22,2.37,5.17c0.43,1.95,0.42,3.97-0.02,6.07c-0.3,1.38-0.8,2.75-1.49,4.08
		s-1.53,2.6-2.53,3.79c-0.99,1.19-2.11,2.28-3.36,3.27s-2.56,1.86-3.95,2.6l5.23,17.96c0.09,0.32,0.03,0.64-0.19,0.95
		c-0.22,0.31-0.54,0.47-0.95,0.47h-7.54c-0.37,0-0.65-0.08-0.85-0.24c-0.2-0.16-0.35-0.47-0.47-0.93l-4.53-15.88h-11.14l-3.32,15.74
		c-0.21,0.88-0.74,1.32-1.59,1.32h-7.09c-0.88,0-1.21-0.44-1-1.32L434.45,25.79z M442.54,32.58l-3.18,15.68h10
		c1.15,0,2.34-0.2,3.55-0.61c1.21-0.4,2.33-0.96,3.36-1.66s1.91-1.53,2.65-2.47c0.74-0.95,1.22-1.95,1.45-3.01
		c0.23-1.06,0.25-2.07,0.07-3.03c-0.18-0.96-0.57-1.8-1.14-2.53c-0.58-0.73-1.34-1.3-2.3-1.73c-0.96-0.43-2.09-0.64-3.41-0.64
		H442.54z"/>
</g>
<g>
	<g>
		<g>
			<path class="st1" d="M41.78,50.73c-3.73-1.12-7.31-0.86-10.6,1.29c-3.25,2.12-5.05,5.2-5.52,9.08c-1.3-2.09-2.01-4.27-1.08-6.65
				c0.25-0.64,0.79-1.18,1.24-1.72c0.4-0.48,0.91-0.88,1.31-1.37c0.78-0.96,0.69-2.11-0.15-2.74c-0.81-0.61-2.08-0.4-2.72,0.56
				c-0.53,0.8-0.88,1.71-1.31,2.57c-0.07,0.14-0.11,0.3-0.19,0.53c-1.44-9.67,3.39-21.1,14.53-26.24
				c11.08-5.12,24.32-1.73,31.56,8.5c6.95,9.82,5.93,22.89-1.95,31.54c-8.39,9.21-19.99,9.55-27.02,7.13
				c1.56,0.04,15.15,0.75,20.42-10.32c-2.4,2.02-14.71,8.04-20.12-3.18c6.11,4.7,13.04,2.28,15.86-0.33
				c2.48-2.22,4.07-4.95,4.44-8.69c0.33-5.66-1.39-8.45-3.13-10.53c-1.87-2.17-4.6-3.85-8.17-4.17c-4.45-0.38-8.04,1.2-10.65,4.14
				c-1.99,2.35-2.69,4.65-3.07,6.46c-0.1,0.56-0.14,1.13-0.19,1.69c-0.04,0.45,0.21,0.6,0.63,0.55
				C36.9,48.74,39.65,48.96,41.78,50.73z"/>
		</g>
		<g>
			<path class="st1" d="M41.62,53.62c-0.91,0.59-1.87,1.11-2.72,1.79c-2.68,2.15-3.39,5.82-1.82,8.84c1.09,2.1,2.76,3.63,4.86,4.7
				c0.21,0.1,0.41,0.21,0.62,0.32c0.03,0.02,0.06,0.06,0.13,0.14c-0.12,0.02-5.42,0-8.29-4.95c-1.45-2.25-1.65-4.63-0.23-6.97
				c1.03-1.71,2.62-2.78,4.52-3.34C39.64,53.85,41.62,53.58,41.62,53.62z"/>
		</g>
	</g>
</g>
<g>
	<path d="M355.01,83.53c0.02-0.08,0.06-0.14,0.1-0.18c0.05-0.04,0.11-0.06,0.18-0.06h3.43c0.4,0,0.76,0.08,1.08,0.24
		c0.31,0.16,0.57,0.37,0.76,0.64c0.2,0.26,0.33,0.57,0.4,0.92c0.07,0.35,0.07,0.7-0.01,1.08c-0.08,0.37-0.22,0.72-0.43,1.06
		c-0.21,0.34-0.46,0.64-0.76,0.89c-0.3,0.26-0.63,0.46-1,0.62c-0.37,0.15-0.75,0.23-1.15,0.23h-2.01l-0.64,2.99
		c-0.04,0.16-0.13,0.24-0.29,0.24h-1.28c-0.16,0-0.22-0.08-0.18-0.24L355.01,83.53z M356.46,84.67l-0.54,2.81h1.56
		c0.2,0,0.41-0.03,0.62-0.1c0.21-0.07,0.41-0.16,0.58-0.28c0.18-0.12,0.33-0.26,0.46-0.42c0.13-0.16,0.21-0.33,0.25-0.52
		c0.04-0.18,0.04-0.36,0.02-0.54c-0.03-0.18-0.09-0.34-0.19-0.48c-0.1-0.14-0.23-0.25-0.4-0.34c-0.17-0.08-0.37-0.13-0.61-0.13
		H356.46z"/>
	<path d="M368.69,84.79c0.04-0.17,0.14-0.26,0.31-0.26h1.24c0.17,0,0.23,0.08,0.19,0.26l-1.52,7.15c-0.04,0.17-0.14,0.26-0.3,0.26
		h-0.8c-0.08,0-0.15-0.03-0.21-0.09c-0.06-0.06-0.08-0.13-0.08-0.21l-0.01-0.74c-0.36,0.4-0.74,0.68-1.14,0.85
		c-0.4,0.17-0.82,0.26-1.28,0.26c-0.22,0-0.44-0.02-0.66-0.07c-0.23-0.05-0.44-0.12-0.64-0.23c-0.2-0.1-0.39-0.24-0.55-0.41
		c-0.17-0.17-0.3-0.37-0.4-0.61c-0.1-0.24-0.16-0.52-0.18-0.84c-0.02-0.32,0.01-0.68,0.09-1.08l0.9-4.23
		c0.04-0.17,0.14-0.26,0.3-0.26h1.21c0.17,0,0.23,0.08,0.19,0.26l-0.89,4.19c-0.12,0.55-0.07,0.96,0.15,1.25
		c0.21,0.29,0.58,0.43,1.1,0.43c0.13,0,0.3-0.03,0.5-0.09s0.42-0.16,0.63-0.31s0.41-0.33,0.59-0.57c0.18-0.24,0.31-0.54,0.39-0.89
		L368.69,84.79z"/>
	<path d="M373.37,91.94c-0.02,0.08-0.07,0.15-0.15,0.19s-0.16,0.07-0.24,0.07h-1.11c-0.17,0-0.24-0.08-0.21-0.26l1.52-7.15
		c0.04-0.17,0.14-0.26,0.31-0.26h0.81c0.08,0,0.15,0.03,0.21,0.09c0.05,0.06,0.08,0.13,0.09,0.22l-0.09,0.86
		c0.4-0.43,0.82-0.75,1.26-0.94c0.44-0.19,0.89-0.29,1.33-0.29c0.33,0,0.65,0.08,0.96,0.22c0.32,0.15,0.59,0.37,0.81,0.67
		c0.22,0.3,0.38,0.66,0.48,1.1c0.09,0.44,0.08,0.94-0.05,1.51l-0.86,3.97c-0.04,0.17-0.13,0.25-0.29,0.25h-1.21
		c-0.08,0-0.14-0.02-0.18-0.06c-0.04-0.04-0.05-0.1-0.03-0.19l0.89-4.17c0.05-0.24,0.06-0.47,0.03-0.67
		c-0.03-0.21-0.1-0.38-0.21-0.53c-0.11-0.15-0.25-0.27-0.43-0.35c-0.18-0.08-0.39-0.12-0.63-0.12c-0.2,0-0.41,0.04-0.64,0.12
		c-0.22,0.08-0.44,0.19-0.64,0.35s-0.38,0.34-0.54,0.56s-0.26,0.46-0.32,0.74L373.37,91.94z"/>
	<path d="M384.61,84.59h0.89c0.08,0,0.14,0.02,0.18,0.06c0.04,0.04,0.05,0.11,0.02,0.2l-0.21,0.99c-0.02,0.08-0.06,0.15-0.12,0.19
		s-0.13,0.07-0.21,0.07h-0.86l-0.79,3.74c-0.02,0.12-0.04,0.23-0.05,0.34c-0.01,0.11,0.01,0.2,0.04,0.28s0.08,0.15,0.16,0.2
		c0.08,0.05,0.18,0.08,0.31,0.09l0.19,0.01c0.08,0,0.14,0.02,0.17,0.05c0.04,0.03,0.06,0.06,0.07,0.09s0.02,0.07,0.01,0.11
		c-0.01,0.04-0.01,0.06-0.02,0.08l-0.18,0.85c0,0.02-0.01,0.05-0.03,0.08s-0.04,0.07-0.08,0.1c-0.04,0.03-0.09,0.06-0.16,0.08
		c-0.07,0.02-0.15,0.03-0.26,0.03c-0.35,0-0.66-0.05-0.94-0.15c-0.28-0.1-0.5-0.25-0.67-0.44s-0.29-0.42-0.35-0.7
		c-0.06-0.27-0.06-0.58,0.02-0.93l0.84-3.92h-0.69c-0.06,0-0.11-0.02-0.16-0.07c-0.05-0.04-0.06-0.11-0.04-0.2l0.21-0.97
		c0.02-0.1,0.06-0.17,0.13-0.21s0.13-0.07,0.19-0.07h0.69l0.27-1.26c0.02-0.08,0.05-0.15,0.09-0.19c0.04-0.04,0.11-0.07,0.21-0.1
		l1.3-0.36c0.03-0.01,0.06-0.01,0.07-0.01c0.06,0,0.1,0.03,0.12,0.08c0.02,0.05,0.02,0.12,0,0.19L384.61,84.59z"/>
	<path d="M394.13,91.95c-0.04,0.17-0.13,0.25-0.29,0.25h-1.07c-0.11,0-0.19-0.04-0.24-0.11c-0.05-0.07-0.07-0.16-0.05-0.27l0.11-0.5
		c-0.39,0.32-0.81,0.56-1.25,0.74c-0.44,0.18-0.89,0.27-1.34,0.27c-0.51,0-0.97-0.1-1.4-0.29c-0.42-0.19-0.78-0.46-1.07-0.81
		c-0.29-0.35-0.48-0.76-0.59-1.24c-0.11-0.48-0.1-1.01,0.02-1.58c0.11-0.54,0.32-1.05,0.63-1.53c0.31-0.48,0.67-0.9,1.1-1.25
		c0.43-0.36,0.9-0.64,1.41-0.85s1.04-0.31,1.57-0.31c0.52,0,0.96,0.09,1.32,0.26c0.36,0.17,0.67,0.45,0.91,0.82l0.27-0.75
		c0.03-0.08,0.06-0.15,0.11-0.19c0.04-0.04,0.1-0.06,0.19-0.06h1c0.16,0,0.22,0.08,0.19,0.25L394.13,91.95z M393.2,87.48
		c-0.06-0.29-0.17-0.54-0.33-0.76s-0.37-0.39-0.62-0.52s-0.53-0.19-0.85-0.19c-0.3,0-0.61,0.06-0.9,0.18
		c-0.3,0.12-0.57,0.29-0.82,0.5c-0.25,0.21-0.47,0.46-0.65,0.76c-0.18,0.29-0.31,0.61-0.38,0.96c-0.07,0.33-0.09,0.64-0.05,0.93
		c0.04,0.29,0.13,0.54,0.27,0.76s0.33,0.38,0.56,0.51c0.23,0.12,0.51,0.18,0.82,0.18c0.33,0,0.65-0.06,0.97-0.19
		c0.32-0.13,0.61-0.3,0.88-0.52s0.5-0.47,0.68-0.76c0.19-0.29,0.32-0.59,0.38-0.92C393.25,88.07,393.26,87.77,393.2,87.48z"/>
	<path d="M409.27,91.95c-0.04,0.17-0.14,0.25-0.29,0.25h-1.03c-0.05,0-0.1-0.02-0.13-0.05s-0.06-0.07-0.08-0.12s-0.04-0.1-0.04-0.15
		c-0.01-0.05-0.01-0.1-0.01-0.14l-0.01-0.43c-0.39,0.32-0.8,0.57-1.22,0.76c-0.42,0.18-0.85,0.28-1.29,0.28c-0.53,0-1-0.1-1.42-0.29
		c-0.42-0.19-0.77-0.46-1.04-0.81c-0.27-0.35-0.46-0.76-0.55-1.24c-0.1-0.48-0.08-1.01,0.04-1.58c0.11-0.54,0.31-1.05,0.59-1.53
		c0.28-0.48,0.62-0.9,1.03-1.25c0.4-0.36,0.85-0.64,1.35-0.84s1.03-0.31,1.58-0.31c0.46,0,0.88,0.09,1.24,0.26
		c0.36,0.17,0.67,0.41,0.92,0.71l0.61-2.88c0.04-0.17,0.14-0.25,0.29-0.25h1.26c0.16,0,0.23,0.08,0.19,0.25L409.27,91.95z
		 M408.41,87.46c-0.06-0.29-0.18-0.55-0.35-0.76c-0.17-0.22-0.38-0.39-0.65-0.51c-0.26-0.12-0.56-0.18-0.88-0.18
		c-0.32,0-0.63,0.06-0.92,0.19s-0.56,0.3-0.79,0.52s-0.44,0.47-0.6,0.76c-0.17,0.29-0.28,0.6-0.35,0.92
		c-0.07,0.33-0.09,0.64-0.07,0.93c0.03,0.29,0.1,0.54,0.23,0.76c0.13,0.21,0.31,0.38,0.55,0.51s0.53,0.19,0.89,0.19
		c0.32,0,0.64-0.06,0.96-0.18c0.32-0.12,0.61-0.29,0.88-0.51s0.5-0.47,0.7-0.76c0.2-0.29,0.33-0.6,0.4-0.93
		C408.47,88.07,408.48,87.75,408.41,87.46z"/>
	<path d="M418.03,90.06c0.03,0,0.06,0.01,0.08,0.02c0.02,0.01,0.04,0.03,0.06,0.06l0.51,0.73c0.08,0.14,0.04,0.26-0.1,0.36
		c-0.27,0.2-0.53,0.37-0.78,0.51c-0.25,0.14-0.5,0.25-0.75,0.34c-0.25,0.09-0.49,0.15-0.73,0.19c-0.24,0.04-0.49,0.06-0.74,0.06
		c-0.53,0-1-0.1-1.43-0.31c-0.43-0.21-0.79-0.49-1.07-0.84c-0.29-0.36-0.48-0.77-0.59-1.25c-0.11-0.47-0.11-0.98,0-1.52
		c0.12-0.54,0.32-1.05,0.62-1.53c0.29-0.48,0.65-0.89,1.07-1.25s0.89-0.64,1.41-0.85c0.52-0.21,1.06-0.31,1.62-0.31
		c0.42,0,0.82,0.08,1.22,0.24c0.39,0.16,0.73,0.4,1.01,0.73c0.28,0.33,0.49,0.74,0.62,1.23c0.13,0.49,0.14,1.07,0.03,1.74
		c-0.02,0.14-0.05,0.25-0.08,0.32c-0.03,0.08-0.08,0.14-0.13,0.18c-0.06,0.04-0.13,0.07-0.21,0.08c-0.09,0.01-0.19,0.02-0.32,0.02
		h-5.31c0,0.27,0.05,0.52,0.13,0.75s0.2,0.43,0.35,0.59c0.15,0.16,0.33,0.29,0.55,0.38s0.46,0.14,0.73,0.14
		c0.24,0,0.46-0.02,0.67-0.07c0.21-0.05,0.4-0.11,0.57-0.18s0.33-0.16,0.48-0.25s0.26-0.18,0.37-0.27
		C417.91,90.08,417.97,90.06,418.03,90.06z M416.16,86.06c-0.24,0.09-0.47,0.2-0.69,0.35c-0.22,0.15-0.42,0.32-0.6,0.52
		c-0.18,0.2-0.34,0.42-0.47,0.64h4.34c-0.01-0.23-0.06-0.45-0.16-0.65s-0.22-0.38-0.38-0.53c-0.16-0.15-0.35-0.26-0.57-0.35
		c-0.22-0.08-0.47-0.12-0.74-0.12C416.66,85.93,416.41,85.97,416.16,86.06z"/>
	<path d="M423.94,82.58c0.02-0.08,0.05-0.15,0.11-0.19s0.12-0.07,0.2-0.07h1.22c0.08,0,0.14,0.02,0.17,0.07
		c0.04,0.05,0.04,0.11,0.03,0.19l-1.99,9.36c-0.02,0.08-0.05,0.14-0.1,0.19c-0.05,0.05-0.12,0.07-0.2,0.07h-1.22
		c-0.17,0-0.24-0.09-0.21-0.26L423.94,82.58z"/>
	<path d="M433.29,83.53c0.04-0.16,0.13-0.24,0.28-0.24h5.86c0.17,0,0.23,0.08,0.19,0.24l-0.24,1.16c-0.04,0.16-0.13,0.24-0.29,0.24
		h-4.34l-0.39,1.82h3.31c0.08,0,0.14,0.02,0.18,0.06c0.04,0.04,0.05,0.1,0.04,0.18l-0.24,1.14c-0.02,0.08-0.05,0.14-0.11,0.18
		c-0.06,0.04-0.13,0.06-0.21,0.06h-3.31l-0.47,2.2H438c0.17,0,0.23,0.08,0.2,0.24l-0.24,1.16c-0.04,0.16-0.14,0.24-0.3,0.24h-5.98
		c-0.16,0-0.22-0.08-0.18-0.24L433.29,83.53z"/>
	<path d="M440.22,90.7c0-0.07,0.05-0.15,0.15-0.24l0.78-0.53c0.05-0.03,0.09-0.05,0.14-0.05c0.04,0,0.08,0.01,0.11,0.04
		c0.03,0.03,0.06,0.06,0.08,0.1c0.07,0.12,0.14,0.23,0.22,0.33c0.08,0.1,0.17,0.19,0.27,0.27c0.1,0.08,0.22,0.13,0.36,0.17
		c0.13,0.04,0.29,0.06,0.48,0.06c0.15,0,0.31-0.02,0.48-0.07s0.33-0.11,0.48-0.18c0.15-0.08,0.28-0.17,0.39-0.28
		s0.18-0.23,0.21-0.37c0.03-0.16,0.03-0.29-0.02-0.39s-0.12-0.18-0.23-0.25s-0.25-0.13-0.42-0.18c-0.17-0.05-0.36-0.11-0.58-0.17
		c-0.31-0.09-0.59-0.21-0.84-0.35c-0.25-0.14-0.45-0.31-0.61-0.51c-0.16-0.2-0.27-0.42-0.33-0.68c-0.06-0.26-0.05-0.55,0.01-0.87
		c0.05-0.25,0.16-0.51,0.33-0.76c0.16-0.25,0.38-0.48,0.63-0.68c0.26-0.2,0.56-0.37,0.91-0.49c0.35-0.12,0.72-0.19,1.14-0.19
		c0.3,0,0.57,0.04,0.82,0.12c0.25,0.08,0.46,0.18,0.65,0.3c0.19,0.12,0.35,0.25,0.49,0.39c0.13,0.14,0.24,0.27,0.32,0.4
		c0.04,0.07,0.06,0.14,0.05,0.19c-0.01,0.06-0.06,0.12-0.15,0.19l-0.72,0.52c-0.06,0.05-0.12,0.07-0.18,0.07
		c-0.06,0-0.12-0.04-0.17-0.11c-0.12-0.19-0.29-0.35-0.48-0.46c-0.19-0.12-0.45-0.17-0.78-0.17c-0.16,0-0.31,0.02-0.46,0.07
		s-0.27,0.1-0.37,0.17c-0.11,0.07-0.19,0.15-0.26,0.25c-0.07,0.1-0.11,0.19-0.13,0.29c-0.03,0.15-0.01,0.27,0.05,0.37
		c0.06,0.1,0.16,0.18,0.29,0.26c0.13,0.08,0.3,0.15,0.5,0.21c0.2,0.06,0.43,0.14,0.68,0.21c0.34,0.11,0.62,0.24,0.84,0.4
		c0.22,0.16,0.39,0.34,0.51,0.54c0.12,0.2,0.19,0.41,0.22,0.64c0.03,0.23,0.01,0.47-0.04,0.72c-0.08,0.39-0.24,0.73-0.46,1.02
		c-0.22,0.29-0.49,0.53-0.79,0.73c-0.3,0.19-0.63,0.33-0.98,0.43c-0.35,0.1-0.7,0.14-1.04,0.14c-0.3,0-0.59-0.03-0.86-0.1
		c-0.27-0.07-0.51-0.17-0.72-0.29c-0.21-0.12-0.4-0.27-0.56-0.44c-0.16-0.17-0.28-0.36-0.37-0.57
		C440.24,90.85,440.22,90.78,440.22,90.7z"/>
	<path d="M451.75,84.59h0.89c0.08,0,0.14,0.02,0.18,0.06c0.04,0.04,0.05,0.11,0.02,0.2l-0.21,0.99c-0.02,0.08-0.06,0.15-0.12,0.19
		s-0.13,0.07-0.21,0.07h-0.86l-0.79,3.74c-0.02,0.12-0.04,0.23-0.05,0.34c-0.01,0.11,0.01,0.2,0.04,0.28s0.08,0.15,0.16,0.2
		c0.08,0.05,0.18,0.08,0.31,0.09l0.19,0.01c0.08,0,0.14,0.02,0.17,0.05c0.04,0.03,0.06,0.06,0.07,0.09s0.02,0.07,0.01,0.11
		c-0.01,0.04-0.01,0.06-0.02,0.08l-0.18,0.85c0,0.02-0.01,0.05-0.03,0.08s-0.04,0.07-0.08,0.1c-0.04,0.03-0.09,0.06-0.16,0.08
		c-0.07,0.02-0.15,0.03-0.26,0.03c-0.35,0-0.66-0.05-0.94-0.15c-0.28-0.1-0.5-0.25-0.67-0.44s-0.29-0.42-0.35-0.7
		c-0.06-0.27-0.06-0.58,0.02-0.93l0.84-3.92h-0.69c-0.06,0-0.11-0.02-0.16-0.07c-0.05-0.04-0.06-0.11-0.04-0.2l0.21-0.97
		c0.02-0.1,0.06-0.17,0.13-0.21s0.13-0.07,0.19-0.07h0.69l0.27-1.26c0.02-0.08,0.05-0.15,0.09-0.19c0.04-0.04,0.11-0.07,0.21-0.1
		l1.3-0.36c0.03-0.01,0.06-0.01,0.07-0.01c0.06,0,0.1,0.03,0.12,0.08c0.02,0.05,0.02,0.12,0,0.19L451.75,84.59z"/>
	<path d="M459.62,90.06c0.03,0,0.06,0.01,0.08,0.02c0.03,0.01,0.04,0.03,0.06,0.06l0.51,0.73c0.08,0.14,0.04,0.26-0.1,0.36
		c-0.27,0.2-0.53,0.37-0.78,0.51s-0.5,0.25-0.75,0.34c-0.25,0.09-0.49,0.15-0.73,0.19c-0.24,0.04-0.49,0.06-0.74,0.06
		c-0.52,0-1-0.1-1.43-0.31c-0.43-0.21-0.79-0.49-1.07-0.84s-0.48-0.77-0.59-1.25c-0.11-0.47-0.11-0.98,0-1.52
		c0.12-0.54,0.32-1.05,0.62-1.53c0.29-0.48,0.65-0.89,1.07-1.25s0.89-0.64,1.41-0.85c0.52-0.21,1.06-0.31,1.62-0.31
		c0.42,0,0.82,0.08,1.22,0.24c0.39,0.16,0.73,0.4,1.01,0.73c0.28,0.33,0.49,0.74,0.62,1.23c0.13,0.49,0.14,1.07,0.03,1.74
		c-0.02,0.14-0.05,0.25-0.08,0.32c-0.03,0.08-0.08,0.14-0.13,0.18s-0.13,0.07-0.21,0.08c-0.08,0.01-0.19,0.02-0.32,0.02h-5.31
		c0,0.27,0.05,0.52,0.13,0.75c0.08,0.23,0.2,0.43,0.35,0.59c0.15,0.16,0.33,0.29,0.55,0.38c0.21,0.09,0.46,0.14,0.73,0.14
		c0.24,0,0.46-0.02,0.67-0.07c0.21-0.05,0.4-0.11,0.57-0.18s0.33-0.16,0.47-0.25s0.26-0.18,0.37-0.27
		C459.51,90.08,459.56,90.06,459.62,90.06z M457.76,86.06c-0.24,0.09-0.47,0.2-0.69,0.35c-0.22,0.15-0.42,0.32-0.6,0.52
		c-0.18,0.2-0.34,0.42-0.46,0.64h4.34c-0.01-0.23-0.07-0.45-0.16-0.65c-0.09-0.2-0.22-0.38-0.38-0.53
		c-0.16-0.15-0.35-0.26-0.57-0.35s-0.47-0.12-0.74-0.12C458.25,85.93,458,85.97,457.76,86.06z"/>
</g>
</svg>
