<?xml version="1.0" encoding="utf-8"?>
<!-- Generator: Adobe Illustrator 25.4.1, SVG Export Plug-In . SVG Version: 6.00 Build 0)  -->
<svg version="1.1" id="Layer_1" xmlns="http://www.w3.org/2000/svg" xmlns:xlink="http://www.w3.org/1999/xlink" x="0px" y="0px"
	 viewBox="0 0 566.88 162.9" style="enable-background:new 0 0 566.88 162.9;" xml:space="preserve">
<style type="text/css">
	.st0{fill:#CCDC29;}
	.st1{font-family:'CocogoosePro-Italic';}
	.st2{font-size:69.2861px;}
	.st3{letter-spacing:2.08;}
	.st4{fill:#BBD631;}
	.st5{font-family:'CocogoosePro-LightItalic';}
</style>
<g>
	
		<ellipse transform="matrix(0.6959 -0.7181 0.7181 0.6959 -37.5744 74.0385)" class="st0" cx="68.64" cy="81.39" rx="10.57" ry="26.55"/>
	
		<ellipse transform="matrix(0.7181 -0.6959 0.6959 0.7181 -17.5273 119.4981)" class="st0" cx="138.75" cy="81.39" rx="26.55" ry="10.57"/>
	<g>
		<path d="M173.25,25.45c-41.46,11.91-59.89,11.91-59.89,11.91s-9.66,21.05-9.66,26.46c0-5.41-9.66-26.46-9.66-26.46
			s-19.8,0-59.89-11.91c0,0,0,0,0,0c1.5,9.4,1.5,9.4,1.5,9.4s32.1,7.61,39.55,19.4c0-0.02,0-0.03,0.01-0.05
			c0.02,0.02,0.05,0.03,0.07,0.05c2.87-5.18,11.7-9.02,12.22-8.08c16.43,29.8,16.06,67.62,6.22,87.88
			c-0.46,0.95,4.92,4.22,10.22,4.21c5.12-0.01,10.16-3.28,9.73-4.21c-9.34-20.2-9.7-57.84,6.58-87.62c0.52-0.95,9.31,2.95,11.79,7.5
			c0.03,0.11,0.08,0.22,0.11,0.33c0.02-0.02,0.03-0.03,0.05-0.04c0.01,0.02,0.02,0.03,0.02,0.04c6.56-11.79,39.55-19.4,39.55-19.4
			S173.25,25.45,173.25,25.45z"/>
		<path d="M76.33,63.67c-6.64-5.21-13.65-7.34-20.87-6.45c-14.11,1.73-8.69,18.96-7.68,22.01c8.49,25.62,36.92,25.37,37.27,25.25
			c0.05,9.8-1.51,17.23-0.7,17.23c4.25,0,7.91-4.45,8.73-8.36c0.29-1.25,3.33-27.3-9.6-55.03C81.79,54.41,76.79,62.81,76.33,63.67z
			 M52.75,62.85c0.24-0.46,10.01-2.51,20.79,9.81c-0.06,0.33-0.15,0.65-0.2,0.98c-0.37,2.23-0.54,4.48-0.5,6.77
			c0.06,2.29,0.29,4.61,1.07,7.01c1.5-2.05,2.45-4.18,3.23-6.34c0.31-0.87,0.55-1.74,0.79-2.62c2.37,3.68,6.95,12.09,6.95,19.8
			C56.26,95.51,50.86,66.44,52.75,62.85z"/>
		<path d="M151.98,57.22c-7.22-0.89-14.23,1.24-20.87,6.45c-0.46-0.87-5.47-9.27-7.15-5.34c-12.94,27.73-9.89,53.78-9.6,55.03
			c0.82,3.92,4.48,8.36,8.73,8.36c0.81,0-0.75-7.43-0.7-17.23c0.35,0.12,28.78,0.36,37.27-25.25
			C160.67,76.18,166.09,58.96,151.98,57.22z M122.56,98.26c0-7.71,4.58-16.12,6.95-19.8c0.24,0.88,0.48,1.75,0.79,2.62
			c0.78,2.16,1.73,4.3,3.23,6.34c0.78-2.4,1-4.72,1.07-7.01c0.04-2.29-0.13-4.54-0.5-6.77c-0.05-0.33-0.14-0.66-0.2-0.99
			c10.78-12.33,20.55-10.28,20.79-9.81C156.58,66.44,151.17,95.51,122.56,98.26z"/>
	</g>
</g>
<text transform="matrix(0.9612 0 0 1 185.6681 106.7653)"><tspan x="0" y="0" class="st1 st2 st3">PTP</tspan><tspan x="146.8" y="0" class="st4 st5 st2 st3">TOUR</tspan></text>
<g>
	<g>
		<path d="M338.12,130.21l-1.64,7.47h-1.72l3.33-14.9c0.42-1.86,0.71-3.22,0.85-4h1.68c-0.06,0.48-0.26,1.49-0.43,2.25
			c1.01-1.48,2.44-2.48,4.52-2.48c2.67,0,4.24,1.78,4.24,5.02c0,3.4-2.01,8.92-7.08,8.92C339.78,132.5,338.55,131.48,338.12,130.21z
			 M347.11,123.81c0-2.56-1.07-3.76-2.9-3.76c-2.68,0-4.41,2.42-5.11,5.54c-0.64,2.89-0.21,5.46,2.83,5.46
			C345.66,131.04,347.11,126.24,347.11,123.81z"/>
		<path d="M363.81,128.53c-0.36,1.59-0.66,3.09-0.78,3.75h-1.68c0.06-0.37,0.24-1.52,0.41-2.27c-0.83,1.37-2.26,2.51-4.51,2.51
			c-2.05,0-4.16-1.1-3.32-4.89l1.98-8.85h1.72l-1.92,8.52c-0.45,2.12-0.22,3.72,2.09,3.72c2.13,0,3.93-1.35,4.76-4.94l1.66-7.31
			h1.77L363.81,128.53z"/>
		<path d="M371.65,123.02c0.63-2.83,0.82-3.75,0.93-4.23h1.68c-0.08,0.45-0.26,1.41-0.44,2.25c0.79-1.21,2.05-2.47,4.49-2.47
			c2.49,0,4.29,1.58,3.49,5.13l-1.92,8.59h-1.77l1.87-8.42c0.43-1.97,0.13-3.79-2.21-3.79c-2.79,0-4.24,2.21-4.92,5.25l-1.54,6.96
			h-1.72L371.65,123.02z"/>
		<path d="M387.32,118.78h2.47l0.93-4.02h1.69l-0.92,4.02h3.05l-0.32,1.4h-3.05l-2.09,9.14c-0.27,1.21-0.03,1.74,1.2,1.74
			c0.78,0,1.33-0.17,1.61-0.22l-0.29,1.32c-0.56,0.23-1.41,0.3-1.88,0.3c-1.77,0-2.95-0.63-2.4-3.11l2.12-9.17H387L387.32,118.78z"
			/>
		<path d="M406.19,129.29c-0.19,0.86-0.52,2.35-0.61,2.99h-1.65c0.08-0.55,0.16-1.06,0.36-1.96c-0.68,1.08-1.86,2.2-4.42,2.2
			c-2.71,0-3.77-1.81-3.77-3.55c0-2.63,2.02-4.34,6.02-4.66c1.17-0.1,1.96-0.13,3.53-0.13l0.2-0.88c0.39-1.71,0.11-3.38-2.69-3.38
			c-2.25,0-2.98,1.17-3.44,2.45h-1.75c0.51-2,1.93-3.8,5.39-3.8c3,0,4.96,1.3,4.17,4.84L406.19,129.29z M405.35,125.48
			c-1.14-0.02-2.17,0.02-3.15,0.11c-2.49,0.21-4.29,1.16-4.29,3.2c0,1.3,0.76,2.32,2.49,2.32c3.13,0,4.24-2.48,4.78-4.83
			L405.35,125.48z"/>
		<path d="M436.04,112.73l-3.6,16.12c-0.28,1.19-0.58,2.71-0.71,3.42h-1.68c0.03-0.32,0.17-1.15,0.39-2.18
			c-0.91,1.42-2.15,2.43-4.47,2.43c-2.86,0-4.23-1.96-4.23-5.07c0-3.69,2.23-8.9,7.12-8.9c2.36,0,3.42,1.24,3.66,2.2l1.79-8.03
			H436.04z M423.58,127.2c0,2.61,1.18,3.88,2.96,3.88c2.77,0,4.22-2.27,5.05-5.94c0.82-3.62-0.37-5.11-2.83-5.11
			C425.21,120.03,423.58,124.39,423.58,127.2z"/>
		<path d="M440.58,125.79c-0.12,0.5-0.18,1.1-0.18,1.69c0,2.17,0.92,3.64,3.17,3.64c2.56,0,3.39-1.71,3.94-2.63h1.75
			c-0.62,1.42-2.02,4.05-5.9,4.05c-3.36,0-4.71-2.2-4.71-5.03c0-3.87,2.23-8.96,7.09-8.96c3.24,0,4.54,2.11,4.54,4.63
			c0,0.84-0.16,1.76-0.37,2.6H440.58z M448.42,124.48c0.08-0.43,0.14-0.75,0.14-1.25c0-2.01-0.96-3.26-3.08-3.26
			c-2.46,0-4.01,2.15-4.62,4.51H448.42z"/>
		<path d="M454.28,132.28l4.35-19.55h1.72L456,132.28H454.28z"/>
		<path d="M474.11,125.79c-0.12,0.5-0.18,1.1-0.18,1.69c0,2.17,0.92,3.64,3.17,3.64c2.56,0,3.39-1.71,3.94-2.63h1.75
			c-0.62,1.42-2.02,4.05-5.9,4.05c-3.36,0-4.71-2.2-4.71-5.03c0-3.87,2.23-8.96,7.09-8.96c3.24,0,4.54,2.11,4.54,4.63
			c0,0.84-0.16,1.76-0.37,2.6H474.11z M481.96,124.48c0.08-0.43,0.14-0.75,0.14-1.25c0-2.01-0.96-3.26-3.08-3.26
			c-2.46,0-4.01,2.15-4.62,4.51H481.96z"/>
		<path d="M489.18,128.2c0.08,1.82,1.14,2.96,3.27,2.96c1.91,0,3.06-1.08,3.06-2.53c0-1.17-0.67-1.91-2.83-2.83
			c-2.31-0.99-3.46-1.71-3.46-3.57c0-1.99,1.51-3.67,4.51-3.67c3.3,0,4.42,2.02,4.4,4.02h-1.67c-0.08-1.47-0.73-2.65-2.92-2.65
			c-1.58,0-2.54,0.87-2.54,2.14c0,1.05,0.59,1.47,2.49,2.3c2.33,0.99,3.85,1.92,3.85,4.01c0,2.21-1.57,4.14-5.08,4.14
			c-3.14,0-4.83-1.69-4.78-4.33H489.18z"/>
		<path d="M502.54,118.78h2.47l0.93-4.02h1.69l-0.92,4.02h3.05l-0.32,1.4h-3.05l-2.09,9.14c-0.27,1.21-0.03,1.74,1.2,1.74
			c0.78,0,1.33-0.17,1.61-0.22l-0.29,1.32c-0.56,0.23-1.41,0.3-1.88,0.3c-1.77,0-2.95-0.63-2.4-3.11l2.12-9.17h-2.45L502.54,118.78z
			"/>
		<path d="M513.72,125.79c-0.12,0.5-0.18,1.1-0.18,1.69c0,2.17,0.92,3.64,3.17,3.64c2.56,0,3.39-1.71,3.94-2.63h1.75
			c-0.62,1.42-2.02,4.05-5.9,4.05c-3.36,0-4.71-2.2-4.71-5.03c0-3.87,2.23-8.96,7.09-8.96c3.24,0,4.54,2.11,4.54,4.63
			c0,0.84-0.16,1.76-0.37,2.6H513.72z M521.57,124.48c0.08-0.43,0.14-0.75,0.14-1.25c0-2.01-0.96-3.26-3.08-3.26
			c-2.46,0-4.01,2.15-4.62,4.51H521.57z"/>
	</g>
</g>
</svg>
