<?xml version="1.0" encoding="utf-8"?>
<!-- Generator: Adobe Illustrator 25.4.1, SVG Export Plug-In . SVG Version: 6.00 Build 0)  -->
<svg version="1.1" id="Layer_1" xmlns="http://www.w3.org/2000/svg" xmlns:xlink="http://www.w3.org/1999/xlink" x="0px" y="0px"
	 viewBox="0 0 196.13 22.81" style="enable-background:new 0 0 196.13 22.81;" xml:space="preserve">
<style type="text/css">
	.st0{fill:#6D6E71;}
</style>
<g>
	<path class="st0" d="M80.38,4.95c0.16-0.27,0.38-0.41,0.65-0.41h2.23c0.26,0,0.41,0.14,0.46,0.41l2.27,12.73
		c0.05,0.27-0.06,0.4-0.33,0.4h-2.62c-0.27,0-0.43-0.13-0.47-0.4l-0.26-1.78h-4.98l-1,1.78c-0.14,0.27-0.35,0.4-0.63,0.4H72.9
		c-0.28,0-0.34-0.13-0.18-0.4L80.38,4.95z M78.99,12.96h2.91l-0.59-4.14L78.99,12.96z"/>
	<path class="st0" d="M87.54,4.95c0.06-0.27,0.22-0.41,0.49-0.41h9.89c0.26,0,0.36,0.14,0.3,0.41l-0.48,2.31
		c-0.06,0.27-0.22,0.41-0.48,0.41h-3.24l-2.14,10.02c-0.06,0.27-0.22,0.4-0.48,0.4h-2.63c-0.27,0-0.38-0.13-0.32-0.4l2.14-10.02
		h-3.22c-0.27,0-0.37-0.14-0.31-0.41L87.54,4.95z"/>
	<path class="st0" d="M99.79,4.95c0.03-0.13,0.09-0.23,0.19-0.3c0.09-0.07,0.19-0.1,0.3-0.1h5.75c0.63,0,1.17,0.13,1.63,0.39
		c0.46,0.26,0.83,0.6,1.12,1.02c0.28,0.42,0.48,0.89,0.58,1.42c0.1,0.53,0.12,1.06,0.03,1.61c-0.1,0.63-0.29,1.21-0.59,1.74
		c-0.3,0.54-0.67,1-1.11,1.39c-0.44,0.39-0.95,0.69-1.51,0.92s-1.16,0.33-1.78,0.33h-2.89l-0.92,4.33c-0.06,0.27-0.22,0.4-0.49,0.4
		H97.4c-0.27,0-0.37-0.13-0.31-0.4L99.79,4.95z M102.78,7.44l-0.65,3.04h2.16c0.22,0,0.43-0.04,0.62-0.13s0.36-0.2,0.51-0.34
		s0.28-0.31,0.38-0.49c0.1-0.18,0.17-0.37,0.21-0.56c0.04-0.18,0.04-0.37,0.02-0.55c-0.03-0.18-0.08-0.34-0.17-0.49
		c-0.09-0.15-0.21-0.26-0.36-0.35s-0.34-0.13-0.56-0.13H102.78z"/>
	<path class="st0" d="M111.74,4.95c0.06-0.27,0.22-0.41,0.49-0.41h9.07c0.26,0,0.36,0.14,0.3,0.41l-0.49,2.34
		c-0.06,0.27-0.22,0.4-0.48,0.4h-5.94l-0.47,2.25h4.51c0.14,0,0.24,0.03,0.31,0.1s0.08,0.17,0.05,0.32l-0.41,1.88
		c-0.06,0.27-0.23,0.4-0.52,0.4h-4.51l-0.5,2.33h6.11c0.27,0,0.38,0.13,0.33,0.4l-0.5,2.33c-0.06,0.27-0.22,0.4-0.48,0.4h-9.24
		c-0.27,0-0.38-0.13-0.32-0.4L111.74,4.95z"/>
	<path class="st0" d="M125.82,14.14c0.02-0.1,0.08-0.14,0.18-0.14h0.68c0.03,0,0.06,0.01,0.08,0.03c0.02,0.02,0.03,0.04,0.04,0.07
		s0.01,0.06,0.01,0.09c0,0.03,0,0.06,0,0.08l0.01,0.27c0.18-0.17,0.38-0.31,0.6-0.42c0.22-0.11,0.46-0.16,0.72-0.16
		c0.27,0,0.51,0.05,0.72,0.16c0.21,0.11,0.39,0.25,0.52,0.44c0.13,0.19,0.22,0.42,0.27,0.68c0.05,0.26,0.04,0.55-0.03,0.87
		c-0.06,0.29-0.16,0.56-0.3,0.8c-0.14,0.25-0.31,0.46-0.51,0.64c-0.2,0.18-0.43,0.32-0.7,0.42s-0.55,0.15-0.86,0.15
		c-0.1,0-0.2-0.01-0.3-0.03c-0.1-0.02-0.18-0.05-0.27-0.09c-0.08-0.04-0.16-0.08-0.23-0.13c-0.07-0.05-0.13-0.11-0.18-0.17
		l-0.31,1.47c-0.02,0.1-0.08,0.14-0.17,0.14h-0.93c-0.05,0-0.08-0.01-0.1-0.04c-0.02-0.02-0.03-0.06-0.02-0.11L125.82,14.14z
		 M126.54,16.05c-0.03,0.13-0.03,0.25-0.01,0.37s0.06,0.23,0.12,0.32s0.15,0.17,0.25,0.22s0.23,0.08,0.38,0.08s0.29-0.03,0.43-0.08
		c0.13-0.05,0.25-0.12,0.35-0.21s0.19-0.2,0.27-0.32c0.07-0.12,0.12-0.25,0.15-0.39c0.03-0.14,0.04-0.27,0.02-0.4
		c-0.02-0.12-0.06-0.23-0.12-0.32c-0.06-0.09-0.15-0.16-0.26-0.22c-0.11-0.05-0.25-0.08-0.41-0.08c-0.14,0-0.27,0.03-0.4,0.09
		c-0.13,0.06-0.25,0.14-0.35,0.23s-0.2,0.2-0.27,0.33S126.57,15.92,126.54,16.05z"/>
	<path class="st0" d="M131.98,14.14c0.02-0.1,0.08-0.15,0.17-0.15h0.55c0.05,0,0.09,0.01,0.12,0.02s0.06,0.06,0.08,0.14l0.07,0.36
		c0.06-0.07,0.13-0.13,0.2-0.2c0.07-0.07,0.14-0.13,0.23-0.18c0.08-0.05,0.17-0.1,0.27-0.13c0.1-0.03,0.22-0.05,0.35-0.05
		c0.13,0,0.26,0.02,0.38,0.06s0.23,0.09,0.33,0.15c0.1,0.06,0.18,0.11,0.25,0.17s0.11,0.1,0.13,0.12c0.04,0.05,0.06,0.09,0.06,0.13
		c-0.01,0.04-0.03,0.08-0.07,0.12l-0.54,0.59c-0.04,0.04-0.08,0.07-0.11,0.07c-0.03,0-0.06-0.02-0.09-0.05
		c-0.02-0.02-0.05-0.05-0.09-0.09c-0.04-0.04-0.08-0.07-0.12-0.1s-0.1-0.06-0.17-0.08c-0.06-0.02-0.14-0.03-0.22-0.03
		c-0.1,0-0.19,0.02-0.29,0.04c-0.09,0.03-0.18,0.08-0.26,0.14c-0.08,0.06-0.15,0.13-0.2,0.23c-0.06,0.09-0.1,0.19-0.12,0.31
		l-0.47,2.2c-0.02,0.1-0.08,0.14-0.18,0.14h-0.94c-0.04,0-0.08-0.01-0.1-0.04c-0.02-0.02-0.03-0.06-0.02-0.11L131.98,14.14z"/>
	<path class="st0" d="M139.04,16.79c0.03-0.02,0.06-0.03,0.09-0.03c0.04,0,0.07,0.02,0.08,0.05l0.34,0.57
		c0.02,0.04,0.03,0.08,0.03,0.12c-0.01,0.04-0.03,0.07-0.08,0.1c-0.16,0.12-0.31,0.21-0.45,0.29c-0.14,0.07-0.28,0.13-0.41,0.17
		c-0.13,0.04-0.26,0.07-0.38,0.08c-0.12,0.01-0.25,0.02-0.37,0.02c-0.28,0-0.53-0.05-0.76-0.16c-0.23-0.11-0.43-0.26-0.59-0.45
		c-0.16-0.19-0.27-0.41-0.34-0.67c-0.07-0.25-0.08-0.53-0.02-0.82c0.06-0.32,0.16-0.6,0.3-0.86c0.15-0.26,0.33-0.48,0.54-0.66
		c0.21-0.18,0.46-0.33,0.73-0.43c0.27-0.1,0.56-0.15,0.86-0.15c0.13,0,0.26,0.02,0.39,0.05c0.13,0.03,0.26,0.09,0.39,0.16
		c0.12,0.07,0.24,0.16,0.34,0.27c0.1,0.11,0.19,0.24,0.26,0.4c0.07,0.15,0.12,0.33,0.14,0.53s0.02,0.42-0.02,0.66
		c-0.01,0.09-0.03,0.16-0.06,0.21c-0.03,0.05-0.06,0.09-0.11,0.12c-0.04,0.03-0.1,0.05-0.16,0.06c-0.07,0.01-0.14,0.01-0.23,0.01
		h-2.27c0.01,0.11,0.03,0.21,0.07,0.3s0.09,0.17,0.16,0.23c0.07,0.06,0.15,0.11,0.24,0.15c0.09,0.03,0.19,0.05,0.3,0.05
		c0.15,0,0.28-0.01,0.38-0.04c0.1-0.02,0.19-0.05,0.27-0.09c0.07-0.04,0.14-0.08,0.2-0.12C138.93,16.87,138.99,16.83,139.04,16.79z
		 M138.44,14.93c-0.09,0-0.18,0.02-0.27,0.05c-0.09,0.03-0.17,0.07-0.25,0.13c-0.08,0.05-0.15,0.12-0.22,0.19
		c-0.07,0.07-0.13,0.15-0.18,0.23h1.62c-0.01-0.1-0.03-0.18-0.07-0.25c-0.04-0.07-0.09-0.13-0.16-0.19
		c-0.06-0.05-0.14-0.09-0.22-0.11C138.62,14.94,138.53,14.93,138.44,14.93z"/>
	<path class="st0" d="M141.77,17.49c-0.03-0.04-0.04-0.08-0.04-0.13c0-0.05,0.03-0.1,0.1-0.16l0.52-0.45
		c0.03-0.03,0.06-0.04,0.09-0.04c0.03,0,0.07,0.02,0.11,0.06c0.04,0.05,0.09,0.09,0.14,0.14c0.05,0.04,0.11,0.08,0.17,0.12
		s0.12,0.06,0.19,0.08c0.07,0.02,0.14,0.03,0.21,0.03c0.08,0,0.16-0.01,0.21-0.02c0.06-0.01,0.11-0.04,0.15-0.06
		s0.07-0.06,0.09-0.09c0.02-0.03,0.04-0.07,0.04-0.11c0.01-0.05,0.01-0.09,0-0.12s-0.03-0.07-0.07-0.1s-0.1-0.06-0.17-0.09
		s-0.17-0.07-0.29-0.1c-0.17-0.05-0.32-0.12-0.45-0.21c-0.13-0.08-0.23-0.19-0.31-0.3c-0.08-0.12-0.13-0.25-0.15-0.4
		c-0.02-0.15-0.01-0.32,0.03-0.5c0.04-0.16,0.1-0.31,0.19-0.45c0.09-0.13,0.21-0.25,0.34-0.34c0.14-0.09,0.3-0.17,0.48-0.22
		c0.18-0.05,0.38-0.08,0.59-0.08c0.18,0,0.34,0.02,0.48,0.06c0.14,0.04,0.26,0.09,0.36,0.15c0.1,0.06,0.19,0.13,0.27,0.2
		c0.07,0.07,0.14,0.14,0.19,0.2c0.04,0.04,0.05,0.08,0.05,0.12c0,0.04-0.04,0.08-0.1,0.13l-0.54,0.4c-0.04,0.03-0.08,0.05-0.11,0.05
		c-0.03,0-0.06-0.02-0.1-0.05c-0.03-0.03-0.06-0.06-0.1-0.09c-0.03-0.03-0.07-0.06-0.11-0.08s-0.08-0.04-0.14-0.06
		c-0.05-0.01-0.11-0.02-0.18-0.02c-0.13,0-0.22,0.02-0.29,0.06c-0.07,0.04-0.11,0.09-0.12,0.14c-0.01,0.05-0.01,0.09,0.01,0.12
		c0.02,0.03,0.06,0.06,0.11,0.09s0.13,0.06,0.23,0.09s0.22,0.08,0.36,0.13c0.19,0.07,0.35,0.16,0.46,0.27s0.2,0.21,0.25,0.33
		s0.08,0.24,0.09,0.37c0,0.13-0.01,0.25-0.03,0.38c-0.05,0.22-0.13,0.41-0.25,0.57c-0.12,0.16-0.26,0.29-0.42,0.39
		c-0.16,0.1-0.34,0.18-0.54,0.23s-0.39,0.07-0.6,0.07c-0.14,0-0.27-0.01-0.4-0.04c-0.13-0.03-0.26-0.07-0.38-0.12
		s-0.23-0.12-0.33-0.21C141.94,17.71,141.85,17.61,141.77,17.49z"/>
	<path class="st0" d="M149.84,16.79c0.03-0.02,0.06-0.03,0.09-0.03c0.04,0,0.07,0.02,0.08,0.05l0.34,0.57
		c0.02,0.04,0.03,0.08,0.03,0.12c-0.01,0.04-0.03,0.07-0.08,0.1c-0.16,0.12-0.31,0.21-0.45,0.29c-0.14,0.07-0.28,0.13-0.41,0.17
		c-0.13,0.04-0.26,0.07-0.38,0.08c-0.12,0.01-0.25,0.02-0.37,0.02c-0.28,0-0.53-0.05-0.76-0.16c-0.23-0.11-0.43-0.26-0.59-0.45
		c-0.16-0.19-0.27-0.41-0.34-0.67c-0.07-0.25-0.08-0.53-0.02-0.82c0.06-0.32,0.16-0.6,0.3-0.86c0.15-0.26,0.33-0.48,0.54-0.66
		c0.21-0.18,0.46-0.33,0.73-0.43c0.27-0.1,0.56-0.15,0.86-0.15c0.13,0,0.26,0.02,0.39,0.05c0.13,0.03,0.26,0.09,0.39,0.16
		c0.12,0.07,0.24,0.16,0.34,0.27c0.1,0.11,0.19,0.24,0.26,0.4c0.07,0.15,0.12,0.33,0.14,0.53s0.02,0.42-0.02,0.66
		c-0.01,0.09-0.03,0.16-0.06,0.21c-0.03,0.05-0.06,0.09-0.11,0.12c-0.04,0.03-0.1,0.05-0.16,0.06c-0.07,0.01-0.14,0.01-0.23,0.01
		h-2.27c0.01,0.11,0.03,0.21,0.07,0.3s0.09,0.17,0.16,0.23c0.07,0.06,0.15,0.11,0.24,0.15c0.09,0.03,0.19,0.05,0.3,0.05
		c0.15,0,0.28-0.01,0.38-0.04c0.1-0.02,0.19-0.05,0.27-0.09c0.07-0.04,0.14-0.08,0.2-0.12C149.73,16.87,149.79,16.83,149.84,16.79z
		 M149.24,14.93c-0.09,0-0.18,0.02-0.27,0.05c-0.09,0.03-0.17,0.07-0.25,0.13c-0.08,0.05-0.15,0.12-0.22,0.19
		c-0.07,0.07-0.13,0.15-0.18,0.23h1.62c-0.01-0.1-0.03-0.18-0.07-0.25c-0.04-0.07-0.09-0.13-0.16-0.19
		c-0.06-0.05-0.14-0.09-0.22-0.11C149.42,14.94,149.33,14.93,149.24,14.93z"/>
	<path class="st0" d="M155.62,15.83c0.02-0.1,0.03-0.2,0.01-0.29c-0.01-0.09-0.04-0.17-0.09-0.24c-0.05-0.07-0.11-0.12-0.19-0.16
		c-0.08-0.04-0.17-0.06-0.28-0.06c-0.11,0-0.21,0.02-0.31,0.06c-0.1,0.04-0.19,0.09-0.26,0.16c-0.08,0.07-0.14,0.15-0.2,0.24
		c-0.06,0.09-0.09,0.19-0.12,0.29l-0.44,2.07c0,0.02-0.02,0.05-0.04,0.07c-0.02,0.02-0.04,0.04-0.07,0.06
		c-0.02,0.02-0.05,0.03-0.08,0.04c-0.03,0.01-0.05,0.02-0.08,0.02h-0.86c-0.1,0-0.14-0.05-0.12-0.15l0.8-3.78
		c0.02-0.1,0.09-0.15,0.19-0.15h0.59c0.05,0,0.09,0.02,0.13,0.05c0.04,0.04,0.06,0.08,0.06,0.13l0.01,0.37
		c0.21-0.22,0.43-0.37,0.65-0.46c0.22-0.09,0.45-0.14,0.68-0.14c0.09,0,0.19,0.01,0.3,0.04c0.11,0.02,0.22,0.06,0.32,0.12
		c0.11,0.05,0.21,0.13,0.3,0.21c0.09,0.09,0.17,0.2,0.23,0.33c0.06,0.13,0.1,0.28,0.12,0.46c0.02,0.18,0,0.38-0.05,0.6l-0.47,2.23
		c-0.02,0.1-0.08,0.15-0.18,0.15h-0.9c-0.1,0-0.14-0.05-0.12-0.15L155.62,15.83z"/>
	<path class="st0" d="M160.49,15.13l-0.6,2.81c-0.02,0.09-0.08,0.14-0.17,0.14h-0.96c-0.1,0-0.13-0.05-0.11-0.14l0.6-2.81h-0.45
		c-0.09,0-0.12-0.04-0.1-0.13l0.18-0.86c0.01-0.04,0.03-0.07,0.05-0.09c0.03-0.02,0.06-0.04,0.1-0.04h0.45l0.14-0.66
		c0.01-0.05,0.03-0.08,0.06-0.11s0.07-0.05,0.14-0.08l0.89-0.28c0.03-0.01,0.05-0.01,0.08-0.01c0.05,0,0.08,0.02,0.11,0.05
		c0.03,0.03,0.03,0.08,0.02,0.15l-0.2,0.94h0.54c0.04,0,0.07,0.01,0.09,0.04s0.02,0.06,0.01,0.09L161.18,15
		c-0.02,0.09-0.07,0.13-0.16,0.13H160.49z"/>
	<path class="st0" d="M166.47,17.94c-0.02,0.1-0.08,0.14-0.17,0.14h-0.73c-0.03,0-0.06-0.01-0.08-0.03
		c-0.02-0.02-0.04-0.05-0.05-0.08c-0.01-0.03-0.02-0.07-0.03-0.1c0-0.04-0.01-0.06-0.01-0.09l-0.02-0.11
		c-0.18,0.15-0.36,0.27-0.54,0.36c-0.18,0.08-0.38,0.13-0.6,0.13c-0.27,0-0.52-0.05-0.75-0.16c-0.23-0.1-0.42-0.25-0.58-0.44
		c-0.16-0.19-0.27-0.41-0.33-0.67c-0.06-0.26-0.07-0.55,0-0.87c0.06-0.3,0.16-0.58,0.31-0.83c0.15-0.25,0.33-0.47,0.55-0.65
		s0.46-0.32,0.74-0.43c0.28-0.1,0.58-0.15,0.9-0.15c0.25,0,0.46,0.05,0.63,0.15s0.31,0.23,0.42,0.4l0.2-0.35
		c0.03-0.05,0.05-0.09,0.07-0.11c0.02-0.02,0.05-0.03,0.1-0.03h0.68c0.1,0,0.13,0.05,0.11,0.14L166.47,17.94z M165.64,16.05
		c0.03-0.14,0.03-0.26,0.01-0.39s-0.07-0.23-0.14-0.32s-0.16-0.17-0.26-0.22c-0.11-0.05-0.23-0.08-0.37-0.08
		c-0.13,0-0.25,0.02-0.38,0.07c-0.13,0.05-0.24,0.12-0.35,0.21c-0.11,0.09-0.2,0.19-0.28,0.32c-0.08,0.12-0.13,0.26-0.17,0.41
		c-0.03,0.14-0.04,0.28-0.01,0.4c0.02,0.12,0.07,0.23,0.13,0.32c0.07,0.09,0.15,0.16,0.26,0.21c0.11,0.05,0.23,0.08,0.36,0.08
		c0.14,0,0.27-0.03,0.4-0.08c0.13-0.05,0.25-0.13,0.36-0.22c0.11-0.09,0.2-0.2,0.27-0.32S165.61,16.18,165.64,16.05z"/>
	<path class="st0" d="M168.72,17.17c0.01-0.05,0.03-0.08,0.06-0.1c0.03-0.02,0.06-0.03,0.09-0.03h0.79c0.03,0,0.05,0,0.06,0.02
		c0.02,0.01,0.03,0.02,0.03,0.04s0.01,0.03,0.01,0.04c0,0.01,0,0.03,0,0.04l-0.17,0.79c-0.01,0.05-0.04,0.09-0.08,0.1
		c-0.04,0.02-0.06,0.02-0.08,0.02h-0.79c-0.01,0-0.02,0-0.03,0c-0.01,0-0.03-0.01-0.04-0.02c-0.01-0.01-0.02-0.02-0.03-0.04
		c-0.01-0.02-0.01-0.04,0-0.07L168.72,17.17z M169.36,14.13c0.01-0.05,0.03-0.08,0.06-0.1c0.03-0.02,0.06-0.03,0.09-0.03h0.79
		c0.03,0,0.05,0,0.06,0.02c0.02,0.01,0.03,0.02,0.03,0.04c0.01,0.01,0.01,0.03,0.01,0.04c0,0.01,0,0.03,0,0.04l-0.17,0.79
		c-0.01,0.05-0.04,0.09-0.08,0.1c-0.04,0.02-0.06,0.02-0.08,0.02h-0.79c-0.01,0-0.02,0-0.03,0s-0.03-0.01-0.04-0.02
		c-0.01-0.01-0.02-0.02-0.03-0.04c-0.01-0.02-0.01-0.04-0.01-0.07L169.36,14.13z"/>
</g>
</svg>
